Coordinates
version=1
nRows=30
nColumns=38
inDegrees=no

Units are S.I. units (second, meters, Newtons, ...)
If the header above contains a line with 'inDegrees', this indicates whether rotational values are in degrees (yes) or radians (no).

endheader
time	pelvis_tilt	pelvis_list	pelvis_rotation	pelvis_tx	pelvis_ty	pelvis_tz	hip_flexion_r	hip_adduction_r	hip_rotation_r	knee_angle_r	ankle_angle_r	subtalar_angle_r	mtp_angle_r	hip_flexion_l	hip_adduction_l	hip_rotation_l	knee_angle_l	ankle_angle_l	subtalar_angle_l	mtp_angle_l	lumbar_extension	lumbar_bending	lumbar_rotation	arm_flex_r	arm_add_r	arm_rot_r	elbow_flex_r	pro_sup_r	wrist_flex_r	wrist_dev_r	arm_flex_l	arm_add_l	arm_rot_l	elbow_flex_l	pro_sup_l	wrist_flex_l	wrist_dev_l
0.87	-2.34947	1.43911	-2.37855	0.717635	0.0138743	0.926405	0.118004	-0.274973	-0.120742	1.22655	-0.236732	0	0	0.161153	0.0927324	-0.271325	0.375181	0.0893646	0	0	-0.181531	-0.117372	-0.0653659	-0.00234828	-0.300431	0.490716	0.605525	1.37019	0	0	-0.0544303	-0.369948	0.582637	0.71111	0.893994	0	0
0.88	-2.41387	1.4389	-2.31058	0.71643	0.0231741	0.92871	0.135303	-0.270254	-0.116493	1.24376	-0.204846	0	0	0.137012	0.0903643	-0.265848	0.363478	0.0935848	0	0	-0.188117	-0.10943	-0.0731785	-0.0069104	-0.301439	0.488655	0.60956	1.36901	0	0	-0.0471115	-0.371086	0.57251	0.709666	0.89913	0	0
0.89	-2.47671	1.43962	-2.24363	0.715282	0.0322935	0.930897	0.152988	-0.263997	-0.113595	1.25565	-0.178556	0	0	0.114443	0.0868988	-0.259901	0.351567	0.097336	0	0	-0.193282	-0.100388	-0.0812163	-0.0116311	-0.30242	0.486004	0.614174	1.36606	0	0	-0.0398613	-0.372155	0.560904	0.70884	0.902956	0	0
0.9	-2.53653	1.44133	-2.17978	0.714198	0.0412669	0.932894	0.171623	-0.256674	-0.111658	1.26273	-0.154296	0	0	0.0940132	0.0824835	-0.25391	0.339987	0.100783	0	0	-0.19705	-0.0908947	-0.0895926	-0.0161695	-0.303322	0.483213	0.619338	1.36218	0	0	-0.0335951	-0.373453	0.54734	0.70979	0.905967	0	0
0.91	-2.59375	1.44385	-2.11801	0.713163	0.0501508	0.934716	0.190452	-0.248841	-0.111552	1.26508	-0.129319	0	0	0.0757762	0.0772715	-0.247741	0.329351	0.104213	0	0	-0.199072	-0.0811896	-0.0977661	-0.021431	-0.303934	0.480039	0.624577	1.35782	0	0	-0.0273125	-0.375066	0.533969	0.71168	0.908089	0	0
0.92	-2.65126	1.44662	-2.05542	0.712211	0.0589342	0.936423	0.208727	-0.240749	-0.113185	1.26298	-0.102863	0	0	0.0590018	0.071375	-0.241513	0.31965	0.107646	0	0	-0.200038	-0.0713032	-0.105863	-0.0270133	-0.304249	0.476374	0.629839	1.35237	0	0	-0.0209485	-0.377044	0.520989	0.714454	0.909369	0	0
0.93	-2.73109	1.44975	-1.97129	0.710398	0.0677475	0.937998	0.226347	-0.242105	-0.113779	1.255	-0.0693469	0	0	0.0435405	0.0670177	-0.231351	0.312399	0.108947	0	0	-0.200814	-0.0571763	-0.113395	-0.0320783	-0.306097	0.473114	0.634285	1.34653	0	0	-0.0151074	-0.377917	0.509039	0.718715	0.909473	0	0
0.94	-2.77212	1.45133	-1.92373	0.710512	0.076367	0.939568	0.242518	-0.224962	-0.121731	1.24599	-0.0514003	0	0	0.0279551	0.0575511	-0.232221	0.303756	0.115967	0	0	-0.20105	-0.0518797	-0.121791	-0.037641	-0.304252	0.47085	0.638541	1.34037	0	0	-0.00868871	-0.382934	0.498653	0.723769	0.908216	0	0
0.95	-2.85421	1.45214	-1.83846	0.708752	0.0850185	0.941061	0.257077	-0.228125	-0.125616	1.22956	-0.0220434	0	0	0.0107153	0.0545452	-0.219461	0.293948	0.115212	0	0	-0.2036	-0.0383067	-0.128938	-0.0415479	-0.305243	0.4636	0.642347	1.34383	0	0	-0.00518639	-0.381232	0.473403	0.728779	0.935233	0	0
0.96	-2.90735	1.45238	-1.78013	0.707952	0.093492	0.942351	0.270741	-0.223112	-0.13398	1.21123	-0.000889712	0	0	-0.00503209	0.0492909	-0.21317	0.285379	0.118275	0	0	-0.20521	-0.0300622	-0.136682	-0.045864	-0.304779	0.459595	0.64627	1.33988	0	0	-0.000275688	-0.384389	0.459366	0.737053	0.93754	0	0
0.97	-2.95662	1.45216	-1.72609	0.707234	0.101933	0.943466	0.283396	-0.218755	-0.143345	1.1894	0.0207021	0	0	-0.0206844	0.0444306	-0.206815	0.276679	0.121165	0	0	-0.206993	-0.0223918	-0.143818	-0.0497636	-0.304107	0.455639	0.64964	1.33659	0	0	0.00461325	-0.387785	0.446122	0.74618	0.939016	0	0
0.98	-3.00378	1.45151	-1.67474	0.706627	0.110296	0.944443	0.294953	-0.214679	-0.153575	1.16416	0.041238	0	0	-0.0360279	0.0395369	-0.200928	0.268916	0.124441	0	0	-0.208879	-0.0151146	-0.1497	-0.0535769	-0.303437	0.452642	0.652306	1.33451	0	0	0.0101269	-0.391202	0.434655	0.755255	0.939729	0	0
0.99	-3.04817	1.45036	-1.62667	0.706106	0.118657	0.945274	0.305085	-0.210875	-0.164752	1.13527	0.0588683	0	0	-0.0513276	0.034708	-0.195245	0.261602	0.128118	0	0	-0.211137	-0.00818322	-0.154948	-0.0567615	-0.302732	0.450396	0.654348	1.33239	0	0	0.0157672	-0.394865	0.424363	0.764621	0.93983	0	0
1	-3.0888	1.44876	-1.58276	0.705699	0.12693	0.945973	0.313743	-0.207267	-0.176855	1.10257	0.0727952	0	0	-0.0669012	0.0301952	-0.189628	0.253941	0.13169	0	0	-0.213813	-0.00160661	-0.159788	-0.059183	-0.301892	0.448872	0.655705	1.33021	0	0	0.0214298	-0.39855	0.414722	0.774269	0.939156	0	0
1.01	-3.12422	1.44698	-1.54436	0.705382	0.135166	0.946517	0.321218	-0.20426	-0.190143	1.0668	0.0849376	0	0	-0.0826335	0.0261326	-0.184186	0.245798	0.135334	0	0	-0.216553	0.00440521	-0.164002	-0.0611348	-0.300935	0.448101	0.656299	1.32794	0	0	0.0275134	-0.402105	0.406194	0.783623	0.93752	0	0
1.02	3.13008	1.44525	-1.51265	0.70511	0.143364	0.946877	0.327723	-0.202367	-0.205232	1.02851	0.0971704	0	0	-0.098355	0.0227774	-0.178996	0.237295	0.13926	0	0	-0.21927	0.00974244	-0.167855	-0.0626468	-0.299832	0.447978	0.656241	1.32525	0	0	0.0338717	-0.405565	0.39875	0.792779	0.935155	0	0
1.03	3.1167	1.44356	-1.49583	0.704891	0.151729	0.946956	0.33378	-0.207013	-0.22997	0.99122	0.109444	0	0	-0.114717	0.0212831	-0.173043	0.227908	0.143114	0	0	-0.221509	0.0129708	-0.172334	-0.0644284	-0.298479	0.448951	0.655977	1.32177	0	0	0.0394793	-0.409711	0.392254	0.802619	0.932703	0	0
1.04	3.09911	1.44147	-1.475	0.704552	0.159735	0.94702	0.336684	-0.212478	-0.261575	0.950044	0.121077	0	0	-0.131195	0.018741	-0.167595	0.219352	0.14729	0	0	-0.224363	0.0170944	-0.176245	-0.0653296	-0.297564	0.451555	0.654823	1.31711	0	0	0.0453195	-0.413356	0.386667	0.811928	0.930542	0	0
1.05	3.07579	1.44109	-1.44953	0.704811	0.168003	0.946772	0.341098	-0.210784	-0.282268	0.904365	0.129199	0	0	-0.143735	0.0150051	-0.165982	0.213567	0.153342	0	0	-0.225966	0.0215721	-0.178741	-0.0653046	-0.29634	0.455079	0.65301	1.31081	0	0	0.0524551	-0.416919	0.382673	0.819914	0.927811	0	0
1.06	3.0608	1.43953	-1.43226	0.704744	0.175964	0.946566	0.342607	-0.208347	-0.301678	0.855809	0.137288	0	0	-0.160113	0.0129979	-0.158601	0.202609	0.156198	0	0	-0.229666	0.0255394	-0.181313	-0.064924	-0.291043	0.439775	0.646054	1.35955	0	0	0.058602	-0.418051	0.37084	0.826941	0.952655	0	0
1.07	3.04798	1.43983	-1.41816	0.704944	0.183846	0.945988	0.346013	-0.205046	-0.319714	0.806315	0.143841	0	0	-0.172707	0.0109086	-0.155497	0.195565	0.161466	0	0	-0.231274	0.0286094	-0.182833	-0.0638433	-0.288792	0.440259	0.641903	1.36313	0	0	0.0649967	-0.42065	0.365321	0.835217	0.956074	0	0
1.08	3.03964	1.44088	-1.4091	0.705327	0.1917	0.945199	0.349937	-0.201279	-0.337045	0.75575	0.149098	0	0	-0.184281	0.00936012	-0.153757	0.189214	0.167285	0	0	-0.232356	0.0306714	-0.18375	-0.0624272	-0.286219	0.441064	0.637171	1.36659	0	0	0.0710237	-0.423329	0.359945	0.843697	0.959738	0	0
1.09	3.05648	1.44307	-1.42	0.706295	0.199392	0.944168	0.356048	-0.191114	-0.346973	0.705927	0.147391	0	0	-0.195776	0.00472231	-0.158739	0.180629	0.176568	0	0	-0.232808	0.0280877	-0.18728	-0.0624409	-0.281525	0.441743	0.632002	1.36961	0	0	0.0782517	-0.427412	0.355356	0.852208	0.963662	0	0
1.1	3.05708	1.44603	-1.42073	0.706958	0.20718	0.942953	0.361554	-0.187459	-0.361498	0.654767	0.151315	0	0	-0.206006	0.00447981	-0.158198	0.173473	0.18202	0	0	-0.232472	0.0283157	-0.187043	-0.06053	-0.278549	0.443253	0.626317	1.37194	0	0	0.0838093	-0.43007	0.350872	0.860484	0.967687	0	0
1.11	3.06024	1.44998	-1.42479	0.707748	0.214911	0.941566	0.367695	-0.183224	-0.374452	0.603199	0.154043	0	0	-0.215077	0.00469651	-0.158473	0.166593	0.187642	0	0	-0.231449	0.027971	-0.186018	-0.0582628	-0.275463	0.44457	0.620121	1.37362	0	0	0.0891103	-0.432328	0.346407	0.868353	0.971627	0	0
1.12	3.06871	1.4554	-1.43477	0.708686	0.222564	0.939944	0.375431	-0.179147	-0.385731	0.552801	0.157402	0	0	-0.221511	0.00544841	-0.160822	0.16202	0.194256	0	0	-0.22914	0.0266429	-0.184204	-0.056241	-0.272852	0.447382	0.615177	1.36919	0	0	0.0947572	-0.43526	0.345881	0.876409	0.961945	0	0
1.13	3.07661	1.46046	-1.44432	0.709729	0.230177	0.938335	0.381962	-0.174056	-0.395804	0.502556	0.161963	0	0	-0.228539	0.00600323	-0.162523	0.156728	0.200147	0	0	-0.227523	0.0255558	-0.182317	-0.0532956	-0.269621	0.448555	0.608646	1.37109	0	0	0.0998874	-0.436843	0.341863	0.882653	0.966504	0	0
1.14	3.07949	1.46556	-1.44903	0.710884	0.237753	0.936713	0.387288	-0.166867	-0.402441	0.451381	0.16631	0	0	-0.235057	0.00574422	-0.16438	0.152216	0.206415	0	0	-0.226049	0.0251522	-0.180267	-0.0494832	-0.266321	0.450252	0.601145	1.37304	0	0	0.104692	-0.437865	0.337411	0.887828	0.972703	0	0
1.15	3.08059	1.47096	-1.45206	0.712114	0.245303	0.935024	0.392017	-0.158288	-0.404577	0.400386	0.170449	0	0	-0.24052	0.0051425	-0.167015	0.149168	0.213139	0	0	-0.224434	0.0250479	-0.177945	-0.0454524	-0.263249	0.452108	0.593808	1.37434	0	0	0.109594	-0.438321	0.333525	0.891566	0.977304	0	0
1.16	3.07106	1.4759	-1.44476	0.713487	0.252883	0.933345	0.394514	-0.146466	-0.398555	0.347723	0.171773	0	0	-0.245601	0.00308921	-0.171604	0.147887	0.220874	0	0	-0.223249	0.0261496	-0.175433	-0.0403748	-0.261838	0.462688	0.587179	1.35453	0	0	0.113792	-0.437366	0.326621	0.893305	0.991244	0	0
